<svg xmlns="http://www.w3.org/2000/svg" width="150" height="29" fill="none" viewBox="0 0 150 29"><path fill="url(#paint0_linear)" d="M99.1146 0H95.6018V28.125H99.1146V0Z"/><path fill="url(#paint1_linear)" d="M15.8385 28.125H15.9006L15.8385 28.0453V28.125Z"/><path fill="url(#paint2_linear)" d="M16.0495 0.208618H15.8385H15.9006V21.284V22.6522V28.125H16.0495V0.208618Z"/><path fill="url(#paint3_linear)" d="M14.082 28.125H14.2868V25.9714L14.082 25.6953V28.125Z"/><path fill="url(#paint4_linear)" d="M12.3195 28.125H12.5243V23.6277L12.3195 23.3455V28.125Z"/><path fill="url(#paint5_linear)" d="M12.3877 0.208618H12.5243H12.3195V16.5044L12.3877 16.5965V0.208618Z"/><path fill="url(#paint6_linear)" d="M10.7679 0.208618H10.5569V14.1545L10.7679 14.4306V0.208618Z"/><path fill="url(#paint7_linear)" d="M10.5569 28.125H10.7679V21.2778L10.5569 21.0017V28.125Z"/><path fill="url(#paint8_linear)" d="M8.80054 28.125H9.00534V18.928L8.80054 18.6519V28.125Z"/><path fill="url(#paint9_linear)" d="M9.00534 0.208618H8.80054V11.8108L9.00534 12.0869V0.208618Z"/><path fill="url(#paint10_linear)" d="M7.24898 0.208618H7.03796V9.46091L7.24898 9.737V0.208618Z"/><path fill="url(#paint11_linear)" d="M7.03796 28.125H7.24898V16.5842L7.03796 16.3081V28.125Z"/><path fill="url(#paint12_linear)" d="M5.48642 0.208618H5.28162V7.11716L5.48642 7.39325V0.208618Z"/><path fill="url(#paint13_linear)" d="M5.28162 28.1251H5.48642V14.2343L5.28162 13.9583V28.1251Z"/><path fill="url(#paint14_linear)" d="M3.72385 0.208618H3.51904V4.76727L3.72385 5.04337V0.208618Z"/><path fill="url(#paint15_linear)" d="M3.61829 28.125H3.72379V11.8844L3.61829 11.7372V28.125Z"/><path fill="url(#paint16_linear)" d="M1.96738 0.208618H1.76257V2.41739L1.96738 2.69348V0.208618Z"/><path fill="url(#paint17_linear)" d="M0.105507 5.50353V0.208618L0.204808 0.349734V0.208618H0V28.125H0.105507V7.0558V5.50353Z"/><path fill="url(#paint18_linear)" d="M15.9006 21.284V0.208618H15.8386H14.287H14.0822H12.5244H12.3879V16.5965L12.3196 16.5044L10.768 14.4306L10.557 14.1545L9.00542 12.0869L8.80061 11.8108L7.24904 9.737L7.03802 9.46091L5.48645 7.39325L5.28164 7.11716L3.72386 5.04337L3.51905 4.76727L1.96748 2.69348L1.76267 2.41739L0.204892 0.349734L0.105591 0.208618V5.50353V7.0558V28.125H3.61835V11.7372L3.72386 11.8844L5.28164 13.9582L5.48645 14.2343L7.03802 16.3081L7.24904 16.5842L8.80061 18.6518L9.00542 18.9279L10.557 21.0017L10.768 21.2778L12.3196 23.3455L12.5244 23.6277L14.0822 25.6954L14.287 25.9715L15.8386 28.0452L15.9006 28.125V22.6522V21.284Z"/><path fill="url(#paint19_linear)" d="M65.4826 8.14784L65.2778 7.73677C64.8399 6.89982 64.318 6.10846 63.7201 5.37461L63.5152 5.12306C63.0395 4.5648 62.5208 4.04377 61.9637 3.56465L61.7589 3.38672C61.2661 2.9797 60.7456 2.60661 60.2011 2.27006L59.9963 2.14122C59.4962 1.84392 58.9781 1.57754 58.4447 1.34361L58.2337 1.22703C57.7276 1.01379 57.2096 0.829426 56.6821 0.674841L56.4773 0.644164C55.9668 0.503501 55.4488 0.390846 54.9257 0.306713H54.7147C54.0412 0.200759 53.361 0.141306 52.679 0.128784C48.975 0.205451 45.4488 1.71392 42.8566 4.33072C40.2645 6.94752 38.8127 10.4643 38.8127 14.1269C38.8127 17.7894 40.2645 21.3062 42.8566 23.923C45.4488 26.5398 48.975 28.0483 52.679 28.1249C53.3604 28.1256 54.0408 28.0764 54.7147 27.9777L54.9257 27.947C55.4494 27.8658 55.9675 27.7531 56.4773 27.6096L56.6821 27.5543C57.2105 27.4025 57.7287 27.2181 58.2337 27.0021C58.3056 26.9752 58.3761 26.9445 58.4447 26.9101C58.9793 26.6786 59.4976 26.4122 59.9963 26.1125L60.2011 25.9837C60.7456 25.6471 61.2661 25.274 61.7589 24.867L61.9637 24.6891C62.5208 24.21 63.0395 23.6889 63.5152 23.1307L63.7201 22.8791C64.318 22.1453 64.8399 21.3539 65.2778 20.517L65.4826 20.1059C66.3737 18.2357 66.8357 16.1941 66.8357 14.1269C66.8357 12.0597 66.3737 10.018 65.4826 8.14784V8.14784ZM42.6559 14.1115C42.6641 11.4877 43.7233 8.97401 45.6018 7.12043C47.4803 5.26685 50.025 4.22438 52.679 4.22114H52.9583V24.0264H52.679C50.0207 24.0232 47.4722 22.9774 45.593 21.1185C43.7139 19.2596 42.6575 16.7396 42.6559 14.1115V14.1115ZM53.1631 24.0203V4.23341C53.6848 4.25796 54.2036 4.32361 54.7147 4.42975V23.824C54.2036 23.9301 53.6848 23.9958 53.1631 24.0203V24.0203ZM54.9257 23.781V4.4727C55.4553 4.59542 55.9741 4.75955 56.4773 4.96354V23.3147C55.9734 23.5104 55.4546 23.6663 54.9257 23.781V23.781ZM56.6821 23.2043V5.04943C57.2249 5.28069 57.7444 5.56212 58.2337 5.88999V22.3637C57.7444 22.6916 57.2249 22.973 56.6821 23.2043V23.2043ZM58.4447 22.2226V6.03111C59.0052 6.42301 59.525 6.869 59.9963 7.3625V20.8605C59.5265 21.3647 59.0067 21.821 58.4447 22.2226ZM60.2011 20.6581V7.59565C60.8292 8.30059 61.3537 9.08962 61.7589 9.9394V18.3143C61.3537 19.1641 60.8292 19.9531 60.2011 20.6581V20.6581ZM61.9637 17.848V10.4302C62.9399 12.8172 62.9399 15.4857 61.9637 17.8726V17.848Z"/><path fill="url(#paint20_linear)" d="M149.95 21.5416V27.9716L149.901 27.9041V28.125H150V21.5416H149.95Z"/><path fill="url(#paint21_linear)" d="M148.138 28.125H148.244V25.7383L148.138 25.6095V28.125Z"/><path fill="url(#paint22_linear)" d="M146.382 28.1251H146.481V23.4437L146.382 23.3087V28.1251Z"/><path fill="url(#paint23_linear)" d="M144.576 28.125H144.768V21.2042L144.576 20.9526V28.125Z"/><path fill="url(#paint24_linear)" d="M144.768 12.3937V5.13545C144.706 5.06796 144.644 4.99434 144.576 4.93298V12.5901L144.768 12.3937Z"/><path fill="url(#paint25_linear)" d="M143.018 13.4613V4.06785L142.807 4.0249V13.4981L143.018 13.4613Z"/><path fill="url(#paint26_linear)" d="M142.807 28.1251H143.018V18.9157L142.807 18.6458V28.1251Z"/><path fill="url(#paint27_linear)" d="M143.018 0.208558H142.807C142.877 0.202453 142.948 0.202453 143.018 0.208558V0.208558Z"/><path fill="url(#paint28_linear)" d="M141.255 3.97583H141.051V13.5533H141.255V3.97583Z"/><path fill="url(#paint29_linear)" d="M141.255 0.208618H141.051V0.214754H141.255V0.208618Z"/><path fill="url(#paint30_linear)" d="M141.255 17.3143H141.051V28.125H141.255V17.3143Z"/><path fill="url(#paint31_linear)" d="M139.493 3.97583H139.288V13.5533H139.493V3.97583Z"/><path fill="url(#paint32_linear)" d="M139.493 17.3143H139.288V28.125H139.493V17.3143Z"/><path fill="url(#paint33_linear)" d="M139.493 0.208618H139.288V0.214754H139.493V0.208618Z"/><path fill="url(#paint34_linear)" d="M137.73 17.3143H137.525V28.125H137.73V17.3143Z"/><path fill="url(#paint35_linear)" d="M137.73 3.97583H137.525V13.5533H137.73V3.97583Z"/><path fill="url(#paint36_linear)" d="M137.73 0.208618H137.525V0.214754H137.73V0.208618Z"/><path fill="url(#paint37_linear)" d="M135.974 3.97583H135.769V13.5533H135.974V3.97583Z"/><path fill="url(#paint38_linear)" d="M135.974 17.3143H135.769V28.125H135.974V17.3143Z"/><path fill="url(#paint39_linear)" d="M135.974 0.208618H135.769V0.214754H135.974V0.208618Z"/><path fill="url(#paint40_linear)" d="M134.143 13.5533H134.217V3.9758H134.143V0.613559V0.214754H134.217V0.208618H134.006V28.125H134.217V17.3143H134.143V13.5533Z"/><path fill="url(#paint41_linear)" d="M149.95 21.5416V21.2532L146.071 16.1915C146.798 15.7242 147.442 15.1417 147.977 14.4674C149.243 12.8302 149.923 10.8226 149.907 8.7614C149.921 6.70421 149.242 4.70088 147.977 3.06768C146.826 1.56982 145.133 0.571309 143.254 0.282178C143.177 0.259358 143.098 0.24294 143.018 0.233094C142.948 0.226989 142.877 0.226989 142.807 0.233094H134.118V3.97573H142.434H142.552L142.782 4.01254L142.993 4.05549C143.6 4.189 144.158 4.48392 144.607 4.90832C144.675 4.96968 144.737 5.0433 144.799 5.11079C145.682 6.11484 146.157 7.40665 146.133 8.73686C146.157 10.0689 145.682 11.3625 144.799 12.3691L144.607 12.5654C144.367 12.8076 144.093 13.0142 143.794 13.1789C143.56 13.3061 143.309 13.401 143.049 13.4612L142.838 13.5041L142.608 13.5409H142.49H134.174V17.302H141.82L142.838 18.6334L143.049 18.9033L144.607 20.9526L144.799 21.2041L146.413 23.3086L146.512 23.4436L148.169 25.6094L148.275 25.7382L149.932 27.9041L149.981 27.9716L149.95 21.5416Z"/><defs><linearGradient id="paint0_linear" x1="97.352" x2="97.352" y1="1.092" y2="13.529" gradientUnits="userSpaceOnUse"><stop offset=".01" stop-color="#EEC880"/><stop offset=".19" stop-color="#F2D68E"/><stop offset=".41" stop-color="#F8F0E3"/><stop offset=".73" stop-color="#C48411"/><stop offset=".9" stop-color="#E4B86D"/><stop offset=".95" stop-color="#EDC686"/></linearGradient><linearGradient id="paint1_linear" x1="17.425" x2="17.425" y1="28.187" y2="29.804" gradientUnits="userSpaceOnUse"><stop offset=".01" stop-color="#EEC880"/><stop offset=".19" stop-color="#F2D68E"/><stop offset=".41" stop-color="#F8F0E3"/><stop offset=".73" stop-color="#C48411"/><stop offset=".9" stop-color="#E4B86D"/><stop offset=".95" stop-color="#EDC686"/></linearGradient><linearGradient id="paint2_linear" x1="21.259" x2="21.259" y1="49.9" y2="615.765" gradientUnits="userSpaceOnUse"><stop offset=".01" stop-color="#EEC880"/><stop offset=".19" stop-color="#F2D68E"/><stop offset=".41" stop-color="#F8F0E3"/><stop offset=".73" stop-color="#C48411"/><stop offset=".9" stop-color="#E4B86D"/><stop offset=".95" stop-color="#EDC686"/></linearGradient><linearGradient id="paint3_linear" x1="18.762" x2="18.762" y1="30.02" y2="79.269" gradientUnits="userSpaceOnUse"><stop offset=".01" stop-color="#EEC880"/><stop offset=".19" stop-color="#F2D68E"/><stop offset=".41" stop-color="#F8F0E3"/><stop offset=".73" stop-color="#C48411"/><stop offset=".9" stop-color="#E4B86D"/><stop offset=".95" stop-color="#EDC686"/></linearGradient><linearGradient id="paint4_linear" x1="16.42" x2="16.42" y1="31.853" y2="128.734" gradientUnits="userSpaceOnUse"><stop offset=".01" stop-color="#EEC880"/><stop offset=".19" stop-color="#F2D68E"/><stop offset=".41" stop-color="#F8F0E3"/><stop offset=".73" stop-color="#C48411"/><stop offset=".9" stop-color="#E4B86D"/><stop offset=".95" stop-color="#EDC686"/></linearGradient><linearGradient id="paint5_linear" x1="16.42" x2="16.42" y1="29.379" y2="361.561" gradientUnits="userSpaceOnUse"><stop offset=".01" stop-color="#EEC880"/><stop offset=".19" stop-color="#F2D68E"/><stop offset=".41" stop-color="#F8F0E3"/><stop offset=".73" stop-color="#C48411"/><stop offset=".9" stop-color="#E4B86D"/><stop offset=".95" stop-color="#EDC686"/></linearGradient><linearGradient id="paint6_linear" x1="14.182" x2="14.182" y1="25.524" y2="313.804" gradientUnits="userSpaceOnUse"><stop offset=".01" stop-color="#EEC880"/><stop offset=".19" stop-color="#F2D68E"/><stop offset=".41" stop-color="#F8F0E3"/><stop offset=".73" stop-color="#C48411"/><stop offset=".9" stop-color="#E4B86D"/><stop offset=".95" stop-color="#EDC686"/></linearGradient><linearGradient id="paint7_linear" x1="14.182" x2="14.182" y1="33.681" y2="178.07" gradientUnits="userSpaceOnUse"><stop offset=".01" stop-color="#EEC880"/><stop offset=".19" stop-color="#F2D68E"/><stop offset=".41" stop-color="#F8F0E3"/><stop offset=".73" stop-color="#C48411"/><stop offset=".9" stop-color="#E4B86D"/><stop offset=".95" stop-color="#EDC686"/></linearGradient><linearGradient id="paint8_linear" x1="11.739" x2="11.739" y1="35.514" y2="227.535" gradientUnits="userSpaceOnUse"><stop offset=".01" stop-color="#EEC880"/><stop offset=".19" stop-color="#F2D68E"/><stop offset=".41" stop-color="#F8F0E3"/><stop offset=".73" stop-color="#C48411"/><stop offset=".9" stop-color="#E4B86D"/><stop offset=".95" stop-color="#EDC686"/></linearGradient><linearGradient id="paint9_linear" x1="11.739" x2="11.739" y1="21.352" y2="262.125" gradientUnits="userSpaceOnUse"><stop offset=".01" stop-color="#EEC880"/><stop offset=".19" stop-color="#F2D68E"/><stop offset=".41" stop-color="#F8F0E3"/><stop offset=".73" stop-color="#C48411"/><stop offset=".9" stop-color="#E4B86D"/><stop offset=".95" stop-color="#EDC686"/></linearGradient><linearGradient id="paint10_linear" x1="9.467" x2="9.467" y1="17.169" y2="210.31" gradientUnits="userSpaceOnUse"><stop offset=".01" stop-color="#EEC880"/><stop offset=".19" stop-color="#F2D68E"/><stop offset=".41" stop-color="#F8F0E3"/><stop offset=".73" stop-color="#C48411"/><stop offset=".9" stop-color="#E4B86D"/><stop offset=".95" stop-color="#EDC686"/></linearGradient><linearGradient id="paint11_linear" x1="9.467" x2="9.467" y1="37.342" y2="276.871" gradientUnits="userSpaceOnUse"><stop offset=".01" stop-color="#EEC880"/><stop offset=".19" stop-color="#F2D68E"/><stop offset=".41" stop-color="#F8F0E3"/><stop offset=".73" stop-color="#C48411"/><stop offset=".9" stop-color="#E4B86D"/><stop offset=".95" stop-color="#EDC686"/></linearGradient><linearGradient id="paint12_linear" x1="7.057" x2="7.057" y1="12.997" y2="158.63" gradientUnits="userSpaceOnUse"><stop offset=".01" stop-color="#EEC880"/><stop offset=".19" stop-color="#F2D68E"/><stop offset=".41" stop-color="#F8F0E3"/><stop offset=".73" stop-color="#C48411"/><stop offset=".9" stop-color="#E4B86D"/><stop offset=".95" stop-color="#EDC686"/></linearGradient><linearGradient id="paint13_linear" x1="7.057" x2="7.057" y1="39.175" y2="326.336" gradientUnits="userSpaceOnUse"><stop offset=".01" stop-color="#EEC880"/><stop offset=".19" stop-color="#F2D68E"/><stop offset=".41" stop-color="#F8F0E3"/><stop offset=".73" stop-color="#C48411"/><stop offset=".9" stop-color="#E4B86D"/><stop offset=".95" stop-color="#EDC686"/></linearGradient><linearGradient id="paint14_linear" x1="4.715" x2="4.715" y1="8.814" y2="106.815" gradientUnits="userSpaceOnUse"><stop offset=".01" stop-color="#EEC880"/><stop offset=".19" stop-color="#F2D68E"/><stop offset=".41" stop-color="#F8F0E3"/><stop offset=".73" stop-color="#C48411"/><stop offset=".9" stop-color="#E4B86D"/><stop offset=".95" stop-color="#EDC686"/></linearGradient><linearGradient id="paint15_linear" x1="4.243" x2="4.243" y1="40.907" y2="373.089" gradientUnits="userSpaceOnUse"><stop offset=".01" stop-color="#EEC880"/><stop offset=".19" stop-color="#F2D68E"/><stop offset=".41" stop-color="#F8F0E3"/><stop offset=".73" stop-color="#C48411"/><stop offset=".9" stop-color="#E4B86D"/><stop offset=".95" stop-color="#EDC686"/></linearGradient><linearGradient id="paint16_linear" x1="2.377" x2="2.377" y1="4.632" y2="55" gradientUnits="userSpaceOnUse"><stop offset=".01" stop-color="#EEC880"/><stop offset=".19" stop-color="#F2D68E"/><stop offset=".41" stop-color="#F8F0E3"/><stop offset=".73" stop-color="#C48411"/><stop offset=".9" stop-color="#E4B86D"/><stop offset=".95" stop-color="#EDC686"/></linearGradient><linearGradient id="paint17_linear" x1=".035" x2=".035" y1="49.9" y2="615.765" gradientUnits="userSpaceOnUse"><stop offset=".01" stop-color="#EEC880"/><stop offset=".19" stop-color="#F2D68E"/><stop offset=".41" stop-color="#F8F0E3"/><stop offset=".73" stop-color="#C48411"/><stop offset=".9" stop-color="#E4B86D"/><stop offset=".95" stop-color="#EDC686"/></linearGradient><linearGradient id="paint18_linear" x1="7.975" x2="7.975" y1="1.293" y2="13.637" gradientUnits="userSpaceOnUse"><stop offset=".01" stop-color="#EEC880"/><stop offset=".19" stop-color="#F2D68E"/><stop offset=".41" stop-color="#F8F0E3"/><stop offset=".73" stop-color="#C48411"/><stop offset=".9" stop-color="#E4B86D"/><stop offset=".95" stop-color="#EDC686"/></linearGradient><linearGradient id="paint19_linear" x1="52.775" x2="52.775" y1="1.216" y2="13.595" gradientUnits="userSpaceOnUse"><stop offset=".01" stop-color="#EEC880"/><stop offset=".19" stop-color="#F2D68E"/><stop offset=".41" stop-color="#F8F0E3"/><stop offset=".73" stop-color="#C48411"/><stop offset=".9" stop-color="#E4B86D"/><stop offset=".95" stop-color="#EDC686"/></linearGradient><linearGradient id="paint20_linear" x1="173.894" x2="173.894" y1="33.26" y2="166.705" gradientUnits="userSpaceOnUse"><stop offset=".01" stop-color="#EEC880"/><stop offset=".19" stop-color="#F2D68E"/><stop offset=".41" stop-color="#F8F0E3"/><stop offset=".73" stop-color="#C48411"/><stop offset=".9" stop-color="#E4B86D"/><stop offset=".95" stop-color="#EDC686"/></linearGradient><linearGradient id="paint21_linear" x1="173.329" x2="173.329" y1="30.087" y2="81.077" gradientUnits="userSpaceOnUse"><stop offset=".01" stop-color="#EEC880"/><stop offset=".19" stop-color="#F2D68E"/><stop offset=".41" stop-color="#F8F0E3"/><stop offset=".73" stop-color="#C48411"/><stop offset=".9" stop-color="#E4B86D"/><stop offset=".95" stop-color="#EDC686"/></linearGradient><linearGradient id="paint22_linear" x1="169.812" x2="169.812" y1="31.882" y2="129.509" gradientUnits="userSpaceOnUse"><stop offset=".01" stop-color="#EEC880"/><stop offset=".19" stop-color="#F2D68E"/><stop offset=".41" stop-color="#F8F0E3"/><stop offset=".73" stop-color="#C48411"/><stop offset=".9" stop-color="#E4B86D"/><stop offset=".95" stop-color="#EDC686"/></linearGradient><linearGradient id="paint23_linear" x1="189.424" x2="189.424" y1="33.719" y2="179.103" gradientUnits="userSpaceOnUse"><stop offset=".01" stop-color="#EEC880"/><stop offset=".19" stop-color="#F2D68E"/><stop offset=".41" stop-color="#F8F0E3"/><stop offset=".73" stop-color="#C48411"/><stop offset=".9" stop-color="#E4B86D"/><stop offset=".95" stop-color="#EDC686"/></linearGradient><linearGradient id="paint24_linear" x1="189.424" x2="189.424" y1="18.563" y2="173.771" gradientUnits="userSpaceOnUse"><stop offset=".01" stop-color="#EEC880"/><stop offset=".19" stop-color="#F2D68E"/><stop offset=".41" stop-color="#F8F0E3"/><stop offset=".73" stop-color="#C48411"/><stop offset=".9" stop-color="#E4B86D"/><stop offset=".95" stop-color="#EDC686"/></linearGradient><linearGradient id="paint25_linear" x1="191.397" x2="191.397" y1="20.887" y2="212.908" gradientUnits="userSpaceOnUse"><stop offset=".01" stop-color="#EEC880"/><stop offset=".19" stop-color="#F2D68E"/><stop offset=".41" stop-color="#F8F0E3"/><stop offset=".73" stop-color="#C48411"/><stop offset=".9" stop-color="#E4B86D"/><stop offset=".95" stop-color="#EDC686"/></linearGradient><linearGradient id="paint26_linear" x1="191.397" x2="191.397" y1="35.519" y2="227.664" gradientUnits="userSpaceOnUse"><stop offset=".01" stop-color="#EEC880"/><stop offset=".19" stop-color="#F2D68E"/><stop offset=".41" stop-color="#F8F0E3"/><stop offset=".73" stop-color="#C48411"/><stop offset=".9" stop-color="#E4B86D"/><stop offset=".95" stop-color="#EDC686"/></linearGradient><linearGradient id="paint27_linear" x1="191.397" x2="191.397" y1=".212" y2=".305" gradientUnits="userSpaceOnUse"><stop offset=".01" stop-color="#EEC880"/><stop offset=".19" stop-color="#F2D68E"/><stop offset=".41" stop-color="#F8F0E3"/><stop offset=".73" stop-color="#C48411"/><stop offset=".9" stop-color="#E4B86D"/><stop offset=".95" stop-color="#EDC686"/></linearGradient><linearGradient id="paint28_linear" x1="187.629" x2="187.629" y1="21.024" y2="215.159" gradientUnits="userSpaceOnUse"><stop offset=".01" stop-color="#EEC880"/><stop offset=".19" stop-color="#F2D68E"/><stop offset=".41" stop-color="#F8F0E3"/><stop offset=".73" stop-color="#C48411"/><stop offset=".9" stop-color="#E4B86D"/><stop offset=".95" stop-color="#EDC686"/></linearGradient><linearGradient id="paint29_linear" x1="187.629" x2="187.629" y1=".22" y2=".344" gradientUnits="userSpaceOnUse"><stop offset=".01" stop-color="#EEC880"/><stop offset=".19" stop-color="#F2D68E"/><stop offset=".41" stop-color="#F8F0E3"/><stop offset=".73" stop-color="#C48411"/><stop offset=".9" stop-color="#E4B86D"/><stop offset=".95" stop-color="#EDC686"/></linearGradient><linearGradient id="paint30_linear" x1="187.629" x2="187.629" y1="36.557" y2="255.69" gradientUnits="userSpaceOnUse"><stop offset=".01" stop-color="#EEC880"/><stop offset=".19" stop-color="#F2D68E"/><stop offset=".41" stop-color="#F8F0E3"/><stop offset=".73" stop-color="#C48411"/><stop offset=".9" stop-color="#E4B86D"/><stop offset=".95" stop-color="#EDC686"/></linearGradient><linearGradient id="paint31_linear" x1="185.287" x2="185.287" y1="21.024" y2="215.159" gradientUnits="userSpaceOnUse"><stop offset=".01" stop-color="#EEC880"/><stop offset=".19" stop-color="#F2D68E"/><stop offset=".41" stop-color="#F8F0E3"/><stop offset=".73" stop-color="#C48411"/><stop offset=".9" stop-color="#E4B86D"/><stop offset=".95" stop-color="#EDC686"/></linearGradient><linearGradient id="paint32_linear" x1="185.287" x2="185.287" y1="36.557" y2="255.69" gradientUnits="userSpaceOnUse"><stop offset=".01" stop-color="#EEC880"/><stop offset=".19" stop-color="#F2D68E"/><stop offset=".41" stop-color="#F8F0E3"/><stop offset=".73" stop-color="#C48411"/><stop offset=".9" stop-color="#E4B86D"/><stop offset=".95" stop-color="#EDC686"/></linearGradient><linearGradient id="paint33_linear" x1="185.287" x2="185.287" y1=".22" y2=".344" gradientUnits="userSpaceOnUse"><stop offset=".01" stop-color="#EEC880"/><stop offset=".19" stop-color="#F2D68E"/><stop offset=".41" stop-color="#F8F0E3"/><stop offset=".73" stop-color="#C48411"/><stop offset=".9" stop-color="#E4B86D"/><stop offset=".95" stop-color="#EDC686"/></linearGradient><linearGradient id="paint34_linear" x1="182.942" x2="182.942" y1="36.557" y2="255.69" gradientUnits="userSpaceOnUse"><stop offset=".01" stop-color="#EEC880"/><stop offset=".19" stop-color="#F2D68E"/><stop offset=".41" stop-color="#F8F0E3"/><stop offset=".73" stop-color="#C48411"/><stop offset=".9" stop-color="#E4B86D"/><stop offset=".95" stop-color="#EDC686"/></linearGradient><linearGradient id="paint35_linear" x1="182.942" x2="182.942" y1="21.024" y2="215.159" gradientUnits="userSpaceOnUse"><stop offset=".01" stop-color="#EEC880"/><stop offset=".19" stop-color="#F2D68E"/><stop offset=".41" stop-color="#F8F0E3"/><stop offset=".73" stop-color="#C48411"/><stop offset=".9" stop-color="#E4B86D"/><stop offset=".95" stop-color="#EDC686"/></linearGradient><linearGradient id="paint36_linear" x1="182.942" x2="182.942" y1=".22" y2=".344" gradientUnits="userSpaceOnUse"><stop offset=".01" stop-color="#EEC880"/><stop offset=".19" stop-color="#F2D68E"/><stop offset=".41" stop-color="#F8F0E3"/><stop offset=".73" stop-color="#C48411"/><stop offset=".9" stop-color="#E4B86D"/><stop offset=".95" stop-color="#EDC686"/></linearGradient><linearGradient id="paint37_linear" x1="180.607" x2="180.607" y1="21.024" y2="215.159" gradientUnits="userSpaceOnUse"><stop offset=".01" stop-color="#EEC880"/><stop offset=".19" stop-color="#F2D68E"/><stop offset=".41" stop-color="#F8F0E3"/><stop offset=".73" stop-color="#C48411"/><stop offset=".9" stop-color="#E4B86D"/><stop offset=".95" stop-color="#EDC686"/></linearGradient><linearGradient id="paint38_linear" x1="180.607" x2="180.607" y1="36.557" y2="255.69" gradientUnits="userSpaceOnUse"><stop offset=".01" stop-color="#EEC880"/><stop offset=".19" stop-color="#F2D68E"/><stop offset=".41" stop-color="#F8F0E3"/><stop offset=".73" stop-color="#C48411"/><stop offset=".9" stop-color="#E4B86D"/><stop offset=".95" stop-color="#EDC686"/></linearGradient><linearGradient id="paint39_linear" x1="180.607" x2="180.607" y1=".22" y2=".344" gradientUnits="userSpaceOnUse"><stop offset=".01" stop-color="#EEC880"/><stop offset=".19" stop-color="#F2D68E"/><stop offset=".41" stop-color="#F8F0E3"/><stop offset=".73" stop-color="#C48411"/><stop offset=".9" stop-color="#E4B86D"/><stop offset=".95" stop-color="#EDC686"/></linearGradient><linearGradient id="paint40_linear" x1="179.604" x2="179.604" y1="49.9" y2="615.765" gradientUnits="userSpaceOnUse"><stop offset=".01" stop-color="#EEC880"/><stop offset=".19" stop-color="#F2D68E"/><stop offset=".41" stop-color="#F8F0E3"/><stop offset=".73" stop-color="#C48411"/><stop offset=".9" stop-color="#E4B86D"/><stop offset=".95" stop-color="#EDC686"/></linearGradient><linearGradient id="paint41_linear" x1="142.022" x2="142.022" y1="1.306" y2="13.573" gradientUnits="userSpaceOnUse"><stop offset=".01" stop-color="#EEC880"/><stop offset=".19" stop-color="#F2D68E"/><stop offset=".41" stop-color="#F8F0E3"/><stop offset=".73" stop-color="#C48411"/><stop offset=".9" stop-color="#E4B86D"/><stop offset=".95" stop-color="#EDC686"/></linearGradient></defs></svg>